<svg xmlns="http://www.w3.org/2000/svg" viewBox="0 0 512 512"><g opacity=".3"><path d="M255 1.6c-6.8 1.8-13.1 5.5-19.1 11.1-2.5 2.4-4.9 4.3-5.3 4.3s-2.2-1.1-3.9-2.3c-15.9-11.7-41.2-9.6-56.6 4.7-11.9 11-17.3 30.9-15.1 54.9 2.1 22.3 7.5 42 16.9 62.1l5.1 10.9-8.3-7.9c-13.8-13.3-27.4-22.7-46.9-32.5C94.2 93 67.7 92 52.3 104.4c-15.3 12.1-21.9 31.2-16.7 48.5.8 2.9 1.4 5.4 1.2 5.5-.2.2-2.4 1.3-5 2.5-19.4 9.2-29.7 34.6-22.4 55.3 5.1 14.4 16.5 25.5 36.5 35.3 16.8 8.3 37.9 14.6 56.1 16.5 5.8.6 12.5 1.4 15 1.7l4.5.5-8.5 2.5c-19.3 5.5-39.4 15.1-55 26.1-32.3 22.7-42.6 47.6-30.3 72.9 5.7 11.8 16.3 20.5 28.6 23.7l5.2 1.3.1 7.9c.1 9.8 2.2 17.2 7.2 25 12.2 18.8 34.4 25.5 57.4 17.1 23.1-8.4 51.7-33 69.6-60 2.5-3.7 4.6-6.6 4.8-6.4.2.1-.6 3.6-1.6 7.7-7.2 28-7.1 65 .1 87 6.8 21 20.5 33.6 39.4 36.3 14.1 2 26.4-1.8 37.1-11.6 4.7-4.3 5.8-4.9 7.2-3.9 1 .7 5 2.9 9.1 4.9 6.3 3.1 8.7 3.7 15.7 4.1 21.4 1.1 39.5-11.2 46.3-31.6 8-23.5 2.3-63.6-13.9-97.8l-5-10.7 8.3 7.9c13.8 13.3 27.4 22.7 46.9 32.5 38.5 19.4 70.3 13.3 84.2-16.1 4.4-9.4 4.8-21.5 1.1-33.5-.5-1.7.3-2.4 4.4-4.3 11.5-5.2 21.7-18.5 24.1-31.2 3.9-20.6-4.4-38.2-24.6-52.1-16.1-11-46.2-21.4-69.4-23.9-5.8-.6-12.5-1.4-15-1.7l-4.5-.5 8.3-2.4c40.1-11.6 75-35.9 86.3-59.9 11.8-25.1-2.6-56-29.2-62.8l-5.4-1.4-.1-7.9c-.1-9.9-2.2-17.2-7.3-25.1-12.1-18.8-34.3-25.3-57.3-17-23.1 8.4-51.7 33-69.6 60-2.5 3.7-4.6 6.6-4.8 6.4-.2-.1.5-3.6 1.6-7.7 11.2-44.1 5.5-91.1-13.3-110.3C288.4 2.1 270.8-2.6 255 1.6m17.5 189c18 4.3 35.3 18 43.3 34.4 5.5 11.2 7.5 19.3 7.5 31 0 18.7-6.5 34.4-19.7 47.6s-28.9 19.7-47.6 19.7-34.4-6.5-47.6-19.7-19.7-28.9-19.7-47.6 6.5-34.4 19.7-47.5c17.4-17.3 40-23.7 64.1-17.9"/><path d="M249 221.1c-16.9 3.4-28.3 17.5-28.3 34.9 0 10.6 3 17.8 10.2 25.1 7.3 7.3 14.6 10.2 25.1 10.2s17.8-2.9 25.1-10.2 10.2-14.6 10.2-25.1-2.9-17.8-10.2-25.1c-8.4-8.3-20.8-12.2-32.1-9.8"/></g></svg>