<svg xmlns="http://www.w3.org/2000/svg" viewBox="0 0 1024 1024"><path d="M476 2.1C337.4 14.2 211.7 99.3 123.3 241 45.7 365.5 1.9 528.1.8 696.5c-.2 28.2.8 36.8 5.7 51.9 11 33.6 39.5 61 81.2 78.1 18.6 7.5 38.8 12.9 110.4 29.4 51 11.8 67.4 16.3 82.4 22.6C305.5 888.9 321 899 410 963c66 47.4 92.4 62.6 105 60.5 11.1-1.9 27.7-12.5 75-48.1 63.4-47.8 93-67.4 129-85.4 32.9-16.4 57-24 124-39 51.2-11.5 76.1-18.5 97.9-27.6 48.5-20.4 73.6-48.9 80.7-91.9 1.4-8.5 1.5-15.3 1-44.5-.7-46.2-3.6-81.6-10.2-126.5-21-141.8-73.8-272.1-150.4-370.5-30.6-39.3-66.7-75.1-104.7-103.6C691.9 37.3 616.9 8.2 539.6 2 524.8.8 490 .9 476 2.1M531.6 289c38.3 3.1 69.4 11.2 101 26.4 26.8 13 48.6 28.2 70.8 49.6 50.8 49 88.1 119.8 106.5 202 3.7 16.7 7 36.6 7.3 44.3l.3 5.8-19 6.3c-47.9 15.9-91.5 38.5-140 72.4-24.2 17-47.3 34.9-89 69.2-30.5 25.1-54.6 44-56 44-2.7 0-32.2-21.8-74.5-55-43.2-34-67.6-52-91-67.2-41.2-26.7-83-47.5-125.5-62.4l-15-5.2.3-7.8c.3-10.3 4.3-35.7 8.8-55.7 11.7-52.7 33-103.2 60.5-143.7 40.4-59.7 94.3-98.7 158.9-115 30-7.6 64.3-10.5 95.6-8" opacity=".3"/></svg>