<svg xmlns="http://www.w3.org/2000/svg" fill="none" viewBox="0 0 100 100"><path fill="#3C3C3C" d="M48.328 3.184a5.87 5.87 0 0 0-1.764 8.128c9.704 15.028 11.996 26.364 11.004 36.3-4.016 19.024-12.748 22.88-20.38 22.88-7.448 0-5.452-12.26.144-15.848 3.344-2.088 7.628-3.444 10.912-3.444 3.256 0 5.896-2.632 5.896-5.876 0-3.248-2.64-5.88-5.896-5.88-3.836 0-7.604.808-11.116 2.18.716-3.388.98-7.048.052-10.94-1.408-5.912-5.464-11.556-12.508-17.028a5.92 5.92 0 0 0-8.276 1.024 5.866 5.866 0 0 0 1.032 8.248c5.74 4.46 7.636 7.76 8.284 10.472.648 2.716.124 5.632-1.176 9.636-1.664 5.392-3.596 10.212-4.44 14.828-.42 2.272-.456 4.748-.56 6.724-4.136-4.028-5.752-9.348-5.752-17.116a5.894 5.894 0 0 0-11.788 0c0 10.612 3.104 20.712 11.424 27.448 7.528 7.176 26.68 4.524 26.68 16.04 0 3.252 4.756 4.832 8.012 4.832 3.34 0 7.54-2.232 7.54-4.832 0-13.068 13.772-21.008 36.444-20.976a5.88 5.88 0 1 0 .016-11.76q-2.32 0-4.552.14c2.536-5.96 3.66-12.524 3.428-19.612a5.88 5.88 0 0 0-6.088-5.684 5.88 5.88 0 0 0-5.7 6.072c.308 9.28-.04 17.568-6.956 21.936-1.964 1.244-4.252 2.32-6.42 2.32 1.684-4.576 2.956-9.408 3.476-14.616.332-3.324.368-7.272-.012-10.34-.588-4.752-1.3-10.14.504-14.2 1.62-3.496 5.252-4.96 10.584-4.96a5.888 5.888 0 1 0 0-11.764c-7.924 0-13.928 4.168-17.332 9.204a100 100 0 0 0-6.568-11.772 5.88 5.88 0 0 0-6.004-2.604 6 6 0 0 0-2.144.84" opacity=".3"/></svg>