<svg xmlns="http://www.w3.org/2000/svg" style="fill-rule:evenodd;clip-rule:evenodd" viewBox="0 0 825 825"><path fill="#3c3c3c" d="M257.5 1.5q2.927-.41 4.5 2a1697 1697 0 0 0 30.5 71 496 496 0 0 0 19.5-8l1.5 1a2838 2838 0 0 1 16.5 39q56.38-14.808 114.5-8.5a1349 1349 0 0 1 45 7 949 949 0 0 1 16-38q10.492 2.6 20.5 7.5a3.94 3.94 0 0 0 2-1 4425 4425 0 0 1 29-70q1.6-2.675 4.5-1.5a777 777 0 0 0 29 12q2.115.552 3 2.5a1762 1762 0 0 0-30 74 97.4 97.4 0 0 1 21 9 334 334 0 0 0-15.5 40q70 42 112 112a2702 2702 0 0 1 38.5-16l2 1a264 264 0 0 0 8.5 20 403754 403754 0 0 1 70.5-29.5q2.166-1.171 4 .5l11.5 27q1.726 3.38 1 7a335321 335321 0 0 0-72.5 31.5 380 380 0 0 1 9 20 2110 2110 0 0 1-39.5 17.5 525 525 0 0 1 9 58q29.887.875 24 30-8.024 14.14-24.5 13a362 362 0 0 1-9 59 348 348 0 0 1 40 16.5l-9 21a2483 2483 0 0 1 73.5 30.5 276 276 0 0 1-14.5 36 9758 9758 0 0 1-73.5-31 335 335 0 0 0-8 19q-.779 1.524-2.5 2a649 649 0 0 1-38.5-16q-42 70-112 112-.487 3.08 1 6a1118 1118 0 0 1 14.5 34.5 143 143 0 0 1-21 8.5l30 76a282 282 0 0 0-35 14 5128 5128 0 0 0-32-74q-10.285 4.842-21 7.5a1881 1881 0 0 1-16-37.5l-2.5-1q-77.504 19.857-155 0-4.398 2.726-6 8a847 847 0 0 1-12.5 30.5q-3.08.487-6-1-7.979-4.66-16.5-5.5a2448 2448 0 0 1-31 73 440 440 0 0 0-34.5-14 5261 5261 0 0 1 30-76q-11.22-3.064-21-9l15.5-37q1.124-1.702-.5-3-69.536-42.286-111.5-112a649 649 0 0 1-38.5 16l-2-1a212 212 0 0 1-7.5-18 3.94 3.94 0 0 0-2-1 4857 4857 0 0 0-73 30 299 299 0 0 1-14-36A2483 2483 0 0 1 74.5 528a616 616 0 0 1-9-21.5 2883 2883 0 0 0 39.5-17q-6.993-28.472-8.5-58-34.251-2.032-22.5-34 8.806-9.904 22-9a406 406 0 0 1 9-58 2883 2883 0 0 0-39.5-17 212 212 0 0 1 7.5-18q1.17-2.166-.5-4Q35.546 276.82.5 261A1595 1595 0 0 1 15 225.5a9765 9765 0 0 0 73.5 31 154.5 154.5 0 0 1 10.5-21 1387 1387 0 0 1 39 16q42.712-70.212 112.5-113.5a2744 2744 0 0 1-16-38.5 303 303 0 0 1 21-10 9678 9678 0 0 0-30-72.5q.48-2.48 3-3a305 305 0 0 0 29-12.5m147 134q44.027 1.533 50 45-2.793 37.035-39 44.5-42.282 1.988-50.5-39.5-1.833-29.59 23.5-44.5a152 152 0 0 1 16-5.5m1 28q21.72-.531 20.5 21-7.377 19.553-26.5 10.5-11.757-11.288-3.5-25.5 4.264-3.995 9.5-6m-134 81q47.572-2.675 54 44.5-5.86 45.864-52 44-38.874-9.495-37.5-49.5 5.437-30.972 35.5-39m258 0q47.221-2.776 54 44-5.499 46.25-52 44.5-38.387-9.006-37.5-48.5 5.347-31.093 35.5-40m-253 27q24.703.945 19.5 25-9.873 13.916-25.5 6.5-13.568-12.813-2-27a48.5 48.5 0 0 1 8-4.5m258 0q17.722-.51 22 16.5-5.082 24.042-28 15-14.342-14.948 1-29a39 39 0 0 0 5-2.5m-427 124q302-.25 604 .5 18.64 9.534 5 25-5.353 3.784-12 4a86982 86982 0 0 1-590 0q-17.717-1.207-17.5-18.5 3.536-7.282 10.5-11m168 91q32.568-1.105 46.5 28 12.177 44.897-31.5 60.5-35.577 5.588-51.5-26.5-10.806-33.08 16.5-54.5 9.578-5.435 20-7.5m258 0q45.273.525 50 45.5-4.448 40.948-45.5 44.5-40.619-4.37-44.5-45 3.2-37.689 40-45m-258 28q27.571-.357 19.5 26-10.7 13.029-25.5 4.5-11.433-10.342-3.5-23.5 4.238-4.464 9.5-7m258 0q19.35-2.079 23 17-3.64 18.069-22 16.5-17.803-6.355-11.5-24.5 3.757-6.466 10.5-9m-129 80q44.477.981 50 45-4 41.001-45 45-41.013-4.014-45-45 3.2-37.689 40-45m0 28q22.986-1.762 21.5 21-3.707 11.265-15.5 14-22.048-3.503-16.5-26 3.733-6.498 10.5-9" opacity=".3"/><path fill="#3c3c3c" d="M403.5 156.5q27.2-2.549 31 24.5-5.889 30.897-36 22-15.672-8.593-13.5-26.5 3.921-15.163 18.5-20m2 7q-5.236 2.005-9.5 6-8.257 14.212 3.5 25.5 19.123 9.053 26.5-10.5 1.22-21.531-20.5-21m-132 101q28.01-3.223 32 24.5-4.154 25.575-30 24-24.183-7.605-18.5-32.5 5.157-11.41 16.5-16m3 7a48.5 48.5 0 0 0-8 4.5q-11.568 14.187 2 27 15.627 7.416 25.5-6.5 5.203-24.055-19.5-25m255-7q20.546-3.428 29.5 15 6.723 21.808-13.5 32.5-20.75 5.99-31.5-12.5-7.741-24.508 15.5-35m3 7a39 39 0 0 1-5 2.5q-15.342 14.052-1 29 22.918 9.042 28-15-4.278-17.01-22-16.5m-258 235q24.79.038 29 24.5-2.655 22.404-25 25.5-20.644-2.644-25-23 .733-20.916 21-27m-1 8q-5.262 2.536-9.5 7-7.933 13.158 3.5 23.5 14.8 8.529 25.5-4.5 8.071-26.357-19.5-26m259-8q30.895 1.298 27.5 32-11.984 25.494-37.5 13.5-18.837-16.773-4.5-37.5 6.457-5.768 14.5-8m-1 8q-6.743 2.534-10.5 9-6.303 18.145 11.5 24.5 18.36 1.569 22-16.5-3.65-19.079-23-17m-128 100q25.144.144 29 25-3.554 23.806-27.5 25-26.016-6.519-21-33 5.787-13.037 19.5-17m-1 8q-6.767 2.502-10.5 9-5.548 22.497 16.5 26 11.793-2.735 15.5-14 1.486-22.762-21.5-21" opacity=".3"/></svg>