<svg xmlns="http://www.w3.org/2000/svg" viewBox="0 0 512 512">
    <defs>
        <linearGradient id="a" x1="2%" x2="100%" y1="7%" y2="93%">
            <stop offset="0%" style="stop-color:#fafa19"/>
            <stop offset="100%" style="stop-color:#230537"/>
        </linearGradient>
        <linearGradient id="b" x1="2%" x2="100%" y1="7%" y2="93%">
            <stop offset="0%" style="stop-color:#7f03ef"/>
            <stop offset="100%" style="stop-color:#0d0537"/>
        </linearGradient>
        <linearGradient id="c" x1="2%" x2="100%" y1="7%" y2="93%">
            <stop offset="0%" style="stop-color:#b40f03"/>
            <stop offset="100%" style="stop-color:#b68d06"/>
        </linearGradient>
        <linearGradient id="d" x1="2%" x2="100%" y1="7%" y2="93%">
            <stop offset="0%" style="stop-color:#00fff2"/>
            <stop offset="100%" style="stop-color:#1d5d99"/>
        </linearGradient>
        <linearGradient id="e" x1="2%" x2="100%" y1="7%" y2="93%">
            <stop offset="0%" style="stop-color:#8d06a8"/>
            <stop offset="100%" style="stop-color:red"/>
        </linearGradient>
        <radialGradient id="f" cx="50%" cy="37%" r="33%" fx="49%" fy="55%">
            <stop offset="0%" style="stop-color:#ff0000"/>
            <stop offset="50%" style="stop-color:#df8208"/>
            <stop offset="100%" style="stop-color:#3f058a"/>
        </radialGradient>
    </defs>
    <g fill="none">
        <path fill="url(#a)" d="M2250 4554c-376-58-709-203-1000-434-98-78-180-162-180-185 0-17 35-55 51-55 20 0 55 24 114 79 75 69 188 155 277 209 523 320 1139 380 1709 167 66-25 131-45 144-45 28 0 55 24 55 49 0 31-24 50-111 85-168 67-350 113-529 136-114 14-425 11-530-6" transform="matrix(.1 0 0 -.1 0 512)"/>
        <path fill="url(#f)" d="M2280 4375c-191-28-368-81-538-161-179-83-314-176-502-344-183-163-291-233-455-293-161-59-302-77-487-64-196 15-214 14-244-9-33-24-56-87-48-130 12-64 34-75 458-219 220-74 401-137 403-139s-5-40-17-85c-98-383-49-821 132-1186 327-658 1048-1045 1771-950 528 69 1002 376 1270 821 44 73 137 264 137 282 0 16 8 15 61-3 51-18 84-13 100 16 14 26 4 65-18 74-83 34-1174 396-1196 397-15 1-35-6-45-15-17-15-23-15-86 6-57 18-70 26-81 53-7 17-18 35-24 38-5 4-486 167-1068 362-1557 522-1683 566-1683 577 0 6 25 7 73 1 118-15 332-9 427 10 171 35 350 108 485 199 33 22 111 86 173 141 63 56 140 122 173 148 457 360 1068 470 1623 292 461-149 835-473 1047-909 69-142 112-280 158-508 46-224 92-355 172-489 116-194 294-367 492-478 50-28 72-50 49-50-4 0-88 27-187 60s-189 60-201 60c-48 0-72-61-36-92 25-22 389-141 432-141 49 0 85 26 104 75 33 80 4 130-113 194-104 58-193 128-282 222-90 95-145 174-206 297-54 109-76 179-118 390-43 212-86 348-160 503-246 513-705 883-1255 1013-201 48-500 62-690 34M1163 2919c154-52 158-55 153-79-38-168-47-275-36-415 26-315 145-573 369-796 152-153 284-235 481-302 248-85 523-91 771-16 340 101 633 355 780 674 18 39 33 72 35 74 2 1 79-22 173-54l169-56-29-72c-143-347-431-646-787-819-232-112-444-159-717-160-746 0-1405 528-1570 1262-30 132-48 339-40 450 13 175 56 375 78 367 7-2 83-28 170-58" transform="matrix(.1 0 0 -.1 0 512)"/>
        <path fill="url(#c)" d="M3609 4219c-35-35-21-58 96-148 313-240 541-556 670-926 16-44 33-86 38-92 24-32 97-2 97 40 0 31-71 213-129 332-150 305-364 559-646 764-77 56-95 61-126 30M845 3803c-27-15-81-39-120-54-85-33-108-62-82-103 21-32 39-32 119-2 119 44 207 94 214 120 16 66-44 84-131 39" transform="matrix(.1 0 0 -.1 0 512)"/>
        <path fill="url(#c)" d="M2321 3764c-238-40-469-158-653-333-144-136-139-149 84-224 90-30 574-193 1076-361 960-322 936-315 962-266 19 36-34 313-68 353-8 68-0 17-38 17-18 315-99 40-39 36-13 32-33 38 0 57 24 35 18 58-43 152-200 308-500 508-856 570-108 18-310 18-425-1" transform="matrix(.1 0 0 -.1 0 512)"/>
        <path fill="url(#a)" d="M4479 2839c-24-24-20-65 18-199 45-158 125-303 241-437 52-60 128-123 149-123 19 0 53 37 53 59 0 10-35 55-79 99-150 153-240 325-281 534-16 82-58 110-101 67" transform="matrix(.1 0 0 -.1 0 512)"/>
        <path fill="url(#d)" d="M644 2789c-18-20-19-39-19-268 1-229 3-255 28-374 68-318 195-588 395-839 52-65 67-78 91-78 33 0 54 20 54 53-1 14-32 63-76 120-142 181-244 379-311 599-60 198-71 284-71 548 0 129-4 241-8 248-13 19-62 14-83-9" transform="matrix(.1 0 0 -.1 0 512)"/>
        <path fill="url(#e)" d="M4402 1924c-26-18-29-56-6-78 18-19 65-21 82-4 18 18 14 63-6 81-23 21-41 21-70 1" transform="matrix(.1 0 0 -.1 0 512)"/>
        <path fill="url(#d)" d="M4169 1718c-28-30-129-206-129-225 0-43 50-69 86-45 26 17 134 207 134 235 0 20-22 44-47 52-16 4-28 0-44-17" transform="matrix(.1 0 0 -.1 0 512)"/>
        <path fill="url(#e)" d="M3815 1241c-58-55-130-119-162-144-467-359-1042-472-1605-317-201 55-438 172-598 295-80 61-94 67-124 54-28-13-39-44-25-71 13-25 146-123 251-186 298-179 631-271 980-272 388 0 754 111 1079 328 168 113 379 308 379 351 0 25-33 61-55 61-9 0-63-45-120-99m565-20c-72-22-139-81-166-147-20-48-17-151 5-199s70-97 120-122c48-24 173-24 217 0 148 79 183 278 71 396-62 66-167 96-247 72" transform="matrix(.1 0 0 -.1 0 512)"/>
    </g>
</svg>